<svg width="84" height="77" viewBox="0 0 84 77" fill="none" xmlns="http://www.w3.org/2000/svg">
<mask id="mask0_574_1383" style="mask-type:luminance" maskUnits="userSpaceOnUse" x="0" y="0" width="85" height="78">
<path d="M84.5 0H0.5V78H84.5V0Z" fill="white"/>
</mask>
<g mask="url(#mask0_574_1383)">
<path d="M45.2857 0H39.7143C19.7137 0 3.5 17.4609 3.5 39C3.5 60.5391 19.7137 78 39.7143 78H45.2857C65.2863 78 81.5 60.5391 81.5 39C81.5 17.4609 65.2863 0 45.2857 0Z" fill="white"/>
<path d="M42 71C59.9493 71 74.5 56.6731 74.5 39C74.5 21.3269 59.9493 7 42 7C24.0507 7 9.5 21.3269 9.5 39C9.5 56.6731 24.0507 71 42 71Z" fill="#E0E8E2"/>
<path d="M40.5 15H44.5C57.2025 15 67.5 25.9691 67.5 39.5C67.5 53.0309 57.2025 64 44.5 64H40.5C27.7975 64 17.5 53.0309 17.5 39.5C17.5 25.9691 27.7975 15 40.5 15Z" fill="#FDF8E5"/>
<path d="M52.5987 58C59.6408 54.5281 64.5 47.3708 64.5 39.3759C64.5 28.1572 55.0026 19 43.0574 19C42.2105 19 41.3614 19.0651 40.5 19.1442C40.5709 19.3279 40.6405 19.5098 40.7097 19.6902C41.1714 20.8948 41.6066 22.0302 42.1657 23.1725L42.1711 23.1837L42.176 23.1951C42.9132 24.9022 43.8643 26.6166 44.8197 28.1354C45.8867 29.7632 46.9472 31.2791 48.2166 32.7922L48.2216 32.7981L48.2264 32.8042C49.5369 34.4704 50.6263 36.2375 51.6033 38.1007L51.6102 38.1138L51.6163 38.1274C53.3556 41.9626 54.4562 46.1365 54.3476 50.3331C54.3463 52.9123 53.7195 55.6322 52.5987 58Z" fill="#E0E8E2" stroke="#3A643C"/>
<path d="M52.0518 50.4863L52.0505 50.4748C51.7016 46.8794 50.42 43.3645 48.6511 39.9216L48.645 39.9093C47.8348 38.2198 46.7891 36.72 45.4912 35.099C44.1667 33.4447 42.9562 31.6792 41.9851 29.803C41.0229 27.9441 40.1708 25.9629 39.6816 23.9678L39.6794 23.9586L39.6775 23.9494C39.3543 22.3769 39.1273 20.8039 38.9966 19.3037C36.9079 19.6112 34.98 20.2037 33.1289 20.893C34.1863 25.623 35.8528 29.4584 40.4172 34.6534C42.054 36.3729 45.0988 40.1541 46.928 44.8661C48.6708 49.3557 49.3267 54.7423 46.5406 59.979C48.1261 59.7736 49.7067 59.431 51.2106 59.0113C52.1796 56.2044 52.3911 53.3031 52.0518 50.4863Z" fill="#E0E8E2" stroke="#3A643C"/>
<path d="M31.4272 33.0933C31.1891 34.1155 31.1891 34.2177 30.5938 34.4222C31.9032 34.5244 34.8794 34.5244 36.07 33.0933C34.9985 33.2977 32.6176 33.7066 31.4272 33.0933Z" fill="white"/>
<path d="M30.2398 30.64C30.716 30.1289 33.5731 30.1289 35.0017 30.2311C33.9303 29.72 31.4303 29.9245 30.2398 30.0267C30.0017 30.4356 29.6446 31.1511 30.2398 30.64Z" fill="white"/>
<path d="M28.2279 46.5913L28.2369 46.5859L28.246 46.5808C28.2834 46.5603 28.286 46.5469 28.288 46.541C28.2946 46.5223 28.3032 46.4755 28.2904 46.3899C28.2705 46.2563 28.2109 46.1106 28.1518 46.0032C27.5286 45.7073 27.1713 45.2649 27.0859 44.7375C27.0377 44.4407 27.0837 44.1606 27.1743 43.9223C27.0992 43.8339 27.0386 43.7335 26.9933 43.6232C26.8834 43.3555 26.8821 43.0736 26.9191 42.837C26.9565 42.5975 27.0383 42.3692 27.1339 42.1785C27.2195 42.0079 27.33 41.8399 27.4565 41.714C27.4965 41.6566 27.5167 41.5769 27.4709 41.4513C27.4125 41.2912 27.2328 41.0368 26.7869 40.765L26.7807 40.7613L26.7747 40.7574C26.3188 40.4598 26.0415 40.085 26.0133 39.647C25.9866 39.2341 26.1928 38.9207 26.3727 38.7522C27.4412 37.6777 28.0944 36.983 30.2934 34.4022C30.0551 32.5997 30.2585 30.5554 30.608 28.725C30.9604 26.8795 31.469 25.2116 31.862 24.1612C31.8072 23.7363 31.7113 23.322 31.5992 22.8895C31.5656 22.7597 31.53 22.6266 31.4937 22.4907C31.4509 22.3305 31.407 22.1666 31.3642 22C24.8982 25.4528 20.5 31.9406 20.5 39.3218C20.5 50.4408 30.4348 60 42.6485 60H43.1814C43.2197 59.9352 43.2575 59.8664 43.2991 59.7903L43.304 59.7815C43.3598 59.6795 43.4232 59.5636 43.5 59.4429C43.3384 57.8122 42.313 55.4701 40.9311 53.4975C40.2215 52.4845 39.4373 51.5977 38.663 50.9753C37.8801 50.3461 37.1623 50.0307 36.5704 50.0493C32.8013 50.2518 31.5514 50.2537 29.7398 50.0468C28.6772 49.9254 28.0286 49.2694 27.7732 48.5359C27.649 48.1792 27.6171 47.8012 27.6804 47.4628C27.7427 47.1299 27.9099 46.7851 28.2279 46.5913Z" fill="#E0E8E2" stroke="#147A36"/>
<path d="M30.5938 36.4222C31.9032 36.5244 34.8794 36.5244 36.07 35.0933C34.9985 35.2977 32.6176 35.7066 31.4272 35.0933C31.1891 36.1155 31.1891 36.2177 30.5938 36.4222Z" fill="#6B8E70"/>
<path d="M30.2398 32.64C30.716 32.1289 33.5731 32.1289 35.0017 32.2311C33.9303 31.72 31.4303 31.9245 30.2398 32.0267C30.0017 32.4356 29.6446 33.1511 30.2398 32.64Z" fill="#3A643C"/>
</g>
</svg>
